<svg id="top_right" data-name="top right" xmlns="http://www.w3.org/2000/svg" viewBox="0 0 197.19 231.8"><defs><style>.cls-1{fill:#ffa717;}</style></defs><path class="cls-1" d="M412.61,277.42" transform="translate(0 -560.2)"/><path class="cls-1" d="M0,620.32V792H166.58A39,39,0,0,0,190,777.29c.57-.78,9.52-13.35,6.68-28.95-3.81-20.87-26-31.92-35.63-36.74-23-11.45-31.15-3.91-46.76-15.58-17.35-13-22.35-33.6-23.37-37.85-4.86-20.07,3.53-24.88,0-47.87-2.5-16.22-10.92-41.42-24.5-43.42-9.23-1.36-12.56,9.23-28.94,10a45.6,45.6,0,0,1-21.15-4.46A48.59,48.59,0,0,1,0,560.2" transform="translate(0 -560.2)"/></svg>