<svg id="top_right" data-name="top right" xmlns="http://www.w3.org/2000/svg" viewBox="0 0 436.73 253.15"><defs><style>.cls-1{fill:#ffa717;}</style></defs><path class="cls-1" d="M175.27,0l54.42,21.83a129,129,0,0,0,15.51,3.29c15.28,2.24,26.22,1,30.61.78,25.59-1,53.26,26.66,66.9,44.86,15.35,20.47,14.92,37.53,34.57,47.25,6,3,9,2.88,17.29,7,3.44,1.72,18.12,9.65,32,26.26a114,114,0,0,1,19,32.37c5.92,15.79,3.94,22,12.1,41.13,5.58,13.09,9.39,17,12.1,19.25,8.55,7.11,18.47,8,25.93,8.76a61.46,61.46,0,0,0,28.53-3.51c14.83-5.76,23.38-16.53,34.57-30.62,13-16.31,13-22.06,22.47-28,10.62-6.68,22.46-6.93,30.74-6.12V0Z" transform="translate(-175.27)"/></svg>