<svg id="top_right" 
data-name="top right" 
xmlns="http://www.w3.org/2000/svg" 
viewBox="0 0 285.71 249.57">
<defs>
<style>.cls-1{fill:#ffa717;}</style>
</defs>
<path class="cls-1" 
d="M326.29,0c37.45,17.46,48.77,36,51.81,50.31,5.72,26.79-14,55.64-.82,67.7,5.8,5.31,11.16,1.13,17.29,7,12.76,12.24-4.25,36.32,6.91,48.88,9.14,10.28,23.29-2.77,44.08,9.75,9.65,5.81,12.47,12.15,24.95,15.85,7.7,2.29,8.88.54,17.81,3.34,7.16,2.25,19.13,6,23.38,15.59,2.28,5.15-.08,6.55,2.22,14.47,1.12,3.85,4.22,14.52,10.3,16.38,9.35,2.88,23-16.11,34.57-30.62,13-16.31,13-22.06,22.47-28,10.62-6.68,22.46-6.93,30.74-6.12V0Z" transform="translate(-326.29)"/><path class="cls-1" d="M412.61,277.42" transform="translate(-326.29)"/></svg>